<svg xmlns="http://www.w3.org/2000/svg" xmlns:xlink="http://www.w3.org/1999/xlink" fill="none" version="1.1" width="24" height="22" viewBox="0 0 24 22"><g transform="matrix(0,1,-1,0,24,-24)"><path d="M36.262100000000004,14.795Q36.2817,14.45,36.6696,14.57L39.7143,15.2L46,17.635C46,16.435,45.8134,16.31,45.538399999999996,16.1L36.5714,9.55Q36.330799999999996,6.55,36.330799999999996,3.905C36.330799999999996,2.68,35.7513,0,35,0C34.2487,0,33.669200000000004,2.72,33.669200000000004,3.905Q33.669200000000004,6.415,33.42857,9.55L24.461607,16.1C24.112947,16.35,24,16.485,24,17.635L30.28571,15.2L33.325450000000004,14.57Q33.713390000000004,14.45,33.73304,14.795C33.75268,15.14,33.67411,18.25,34.022800000000004,19.9C34.067,20.12,33.9,20.135,33.78705,20.27L31.23839,21.91Q31.15491,22.005,31.11562,22.275L31.06652,23.2L34.4058,22.4L34.9951,24L35.5844,22.4L38.9237,23.2L38.8746,22.275C38.8795,22.275,38.840199999999996,22.005,38.7567,21.91L36.208,20.27C36.0951,20.135,35.9281,20.12,35.972300000000004,19.9C36.3112,18.25,36.2424,15.14,36.262100000000004,14.795Z" fill="#3D3D3D" fill-opacity="1"/></g></svg>